<svg class="fill-current light-mode-icon dark:dark-mode-icon" width="24" height="24" viewBox="0 0 24 24" fill="none" xmlns="http://www.w3.org/2000/svg">
<path d="M6 7.49999C6 5.8453 8.1525 4.49999 10.8 4.49999H13.2C15.8475 4.49999 18 5.8453 18 7.49999V7.66874C18 8.69061 17.1675 9.64218 15.795 10.1906L12.63 11.4609C10.74 12.2203 9.6 13.5281 9.6 14.9297V14.9953C9.6 15.825 10.6725 16.4953 12 16.4953C13.3275 16.4953 14.4 15.825 14.4 14.9953V14.9297C14.4 14.5453 14.715 14.189 15.225 13.9828L18.39 12.7125C21.135 11.6062 22.8 9.7078 22.8 7.66405V7.4953C22.8 4.18124 18.5025 1.4953 13.2 1.4953H10.8C5.4975 1.49999 1.2 4.18593 1.2 7.49999C1.2 8.32968 2.2725 8.99999 3.6 8.99999C4.9275 8.99999 6 8.32968 6 7.49999ZM12 22.5C12.7957 22.5 13.5587 22.3024 14.1213 21.9508C14.6839 21.5992 15 21.1223 15 20.625C15 20.1277 14.6839 19.6508 14.1213 19.2992C13.5587 18.9475 12.7957 18.75 12 18.75C11.2044 18.75 10.4413 18.9475 9.87868 19.2992C9.31607 19.6508 9 20.1277 9 20.625C9 21.1223 9.31607 21.5992 9.87868 21.9508C10.4413 22.3024 11.2044 22.5 12 22.5Z" fill="#8AE0E0"/>
<title>How to play</title>
</svg>
