<svg class="fill-current light-mode-icon" width="24" height="24" viewBox="0 0 24 24" fill="none" xmlns="http://www.w3.org/2000/svg">
<g clip-path="url(#clip0_6_346)">
<path d="M13.9688 1.5C6.25 1.5 0 6.20156 0 12C0 17.7984 6.25 22.5 13.9688 22.5C17.7563 22.5 21.1875 21.3656 23.7062 19.5281C24.0187 19.2984 24.1 18.9422 23.9 18.6516C23.7 18.3609 23.2687 18.1969 22.8375 18.2531C22.225 18.3328 21.6 18.375 20.9562 18.375C14.9 18.375 9.9875 14.6812 9.9875 10.125C9.9875 7.04062 12.2375 4.35469 15.5688 2.93906C15.95 2.775 16.1437 2.44688 16.05 2.12813C15.9562 1.80938 15.5938 1.57031 15.1562 1.54219C14.7625 1.51875 14.3687 1.50469 13.9688 1.50469V1.5Z" fill="#8AE0E0"/>
</g>
<defs>
<clipPath id="clip0_6_346">
<rect width="24" height="24" fill="white"/>
</clipPath>
</defs>
<title>Switch to dark mode</title>
</svg>
