<svg class="fill-current special-light-mode-icon dark:special-dark-mode-icon"  width="35" height="38" viewBox="0 0 35 38" fill="none" xmlns="http://www.w3.org/2000/svg">
<path d="M3.6 4.75C1.6125 4.75 0 6.09375 0 7.75V25.75C0 27.4062 1.6125 28.75 3.6 28.75H6C7.9875 28.75 9.6 27.4062 9.6 25.75V7.75C9.6 6.09375 7.9875 4.75 6 4.75H3.6ZM18 4.75C16.0125 4.75 14.4 6.09375 14.4 7.75V25.75C14.4 27.4062 16.0125 28.75 18 28.75H20.4C22.3875 28.75 24 27.4062 24 25.75V7.75C24 6.09375 22.3875 4.75 20.4 4.75H18Z" fill="#000000"/>
<title>Pause timer</title>
</svg>
