<svg class="fill-current light-mode-icon" width="24" height="24" viewBox="0 0 24 24" fill="none" xmlns="http://www.w3.org/2000/svg">
<g clip-path="url(#clip0_8_1327)">
<path d="M17.6111 0.923599C17.5408 0.548599 17.2877 0.234537 16.9361 0.0892241C16.5845 -0.0560884 16.1814 -0.0139009 15.8673 0.201724L12.0002 2.86422L8.13297 0.197037C7.81891 -0.0185885 7.41579 -0.0607759 7.06422 0.0845366C6.71266 0.229849 6.45954 0.543912 6.38923 0.918912L5.54079 5.5361L0.923599 6.38923C0.548599 6.45954 0.234537 6.71266 0.0892241 7.06422C-0.0560884 7.41579 -0.0139009 7.81891 0.201724 8.13297L2.86422 12.0002L0.197037 15.8673C-0.0185885 16.1814 -0.0607759 16.5845 0.0845366 16.9361C0.229849 17.2877 0.543912 17.5455 0.918912 17.6111L5.5361 18.4595L6.38454 23.0767C6.45485 23.4517 6.70798 23.7658 7.05954 23.9111C7.4111 24.0564 7.81422 24.0142 8.12829 23.7986L12.0002 21.1361L15.8673 23.8033C16.1814 24.0189 16.5845 24.0611 16.9361 23.9158C17.2877 23.7705 17.5408 23.4564 17.6111 23.0814L18.4595 18.4642L23.0767 17.6158C23.4517 17.5455 23.7658 17.2923 23.9111 16.9408C24.0564 16.5892 24.0142 16.1861 23.7986 15.872L21.1361 12.0002L23.8033 8.13297C24.0189 7.81891 24.0611 7.41579 23.9158 7.06422C23.7705 6.71266 23.4564 6.45954 23.0814 6.38923L18.4642 5.54079L17.6111 0.923599ZM12.6377 5.15641L15.7127 3.03766L16.3877 6.70798C16.472 7.16735 16.833 7.52829 17.2923 7.61266L20.9627 8.28766L18.8439 11.3627C18.5767 11.747 18.5767 12.2533 18.8439 12.6377L20.9627 15.7127L17.2923 16.3877C16.833 16.472 16.472 16.833 16.3877 17.2923L15.7127 20.9627L12.6377 18.8439C12.2533 18.5767 11.747 18.5767 11.3627 18.8439L8.28766 20.9627L7.61266 17.2923C7.52829 16.833 7.16735 16.472 6.70798 16.3877L3.03766 15.7127L5.15641 12.6377C5.4236 12.2533 5.4236 11.747 5.15641 11.3627L3.03766 8.28766L6.70798 7.61266C7.16735 7.52829 7.52829 7.16735 7.61266 6.70798L8.28766 3.03766L11.3627 5.15641C11.747 5.4236 12.2533 5.4236 12.6377 5.15641ZM12.0002 17.2502C13.3925 17.2502 14.7279 16.697 15.7125 15.7125C16.697 14.7279 17.2502 13.3925 17.2502 12.0002C17.2502 10.6078 16.697 9.27242 15.7125 8.28785C14.7279 7.30329 13.3925 6.75016 12.0002 6.75016C10.6078 6.75016 9.27242 7.30329 8.28785 8.28785C7.30329 9.27242 6.75016 10.6078 6.75016 12.0002C6.75016 13.3925 7.30329 14.7279 8.28785 15.7125C9.27242 16.697 10.6078 17.2502 12.0002 17.2502ZM9.00016 12.0002C9.00016 11.2045 9.31623 10.4415 9.87884 9.87884C10.4415 9.31623 11.2045 9.00016 12.0002 9.00016C12.7958 9.00016 13.5589 9.31623 14.1215 9.87884C14.6841 10.4415 15.0002 11.2045 15.0002 12.0002C15.0002 12.7958 14.6841 13.5589 14.1215 14.1215C13.5589 14.6841 12.7958 15.0002 12.0002 15.0002C11.2045 15.0002 10.4415 14.6841 9.87884 14.1215C9.31623 13.5589 9.00016 12.7958 9.00016 12.0002Z" fill="#217D7D"/>
</g>
<defs>
<clipPath id="clip0_8_1327">
<rect width="24" height="24" fill="white"/>
</clipPath>
</defs>
<title>Switch to light mode</title>
</svg>
